<svg width="14" height="11" viewBox="0 0 14 11" fill="none" xmlns="http://www.w3.org/2000/svg">
<path d="M13.0222 6.28131C13.4036 6.28131 13.7127 5.97217 13.7127 5.59082C13.7127 5.20947 13.4036 4.90033 13.0222 4.90033V6.28131ZM0.574302 5.10257C0.304648 5.37222 0.304648 5.80942 0.574302 6.07907L4.96856 10.4733C5.23822 10.743 5.67541 10.743 5.94507 10.4733C6.21472 10.2037 6.21472 9.76648 5.94507 9.49683L2.03906 5.59082L5.94507 1.68481C6.21472 1.41516 6.21472 0.977962 5.94507 0.708308C5.67541 0.438654 5.23822 0.438654 4.96856 0.708308L0.574302 5.10257ZM13.0222 4.90033L1.06255 4.90033V6.28131L13.0222 6.28131V4.90033Z" fill="#858585"/>
</svg>
